<?xml version="1.0" encoding="utf-8"?>
<!DOCTYPE svg PUBLIC "-//W3C//DTD SVG 1.1//EN" "http://www.w3.org/Graphics/SVG/1.1/DTD/svg11.dtd">
<svg class="icon" version="1.1" xmlns="http://www.w3.org/2000/svg" xmlns:xlink="http://www.w3.org/1999/xlink" width="32" height="32" viewBox="0 0 32 32">
	<path class="list-path"  d="M160 416h-32c-17.664 0-32 14.304-32 32s14.336 32 32 32h32c17.664 0 32-14.304 32-32s-14.336-32-32-32zM160 288h-32c-17.664 0-32 14.336-32 32s14.336 32 32 32h32c17.664 0 32-14.336 32-32s-14.336-32-32-32zM160 160h-32c-17.664 0-32 14.336-32 32s14.336 32 32 32h32c17.664 0 32-14.336 32-32s-14.336-32-32-32zM288 224h224c17.696 0 32-14.336 32-32s-14.304-32-32-32h-224c-17.664 0-32 14.336-32 32s14.336 32 32 32zM512 288h-224c-17.664 0-32 14.336-32 32s14.336 32 32 32h224c17.696 0 32-14.336 32-32s-14.304-32-32-32zM512 416h-224c-17.664 0-32 14.304-32 32s14.336 32 32 32h224c17.696 0 32-14.304 32-32s-14.304-32-32-32z" 
          transform="scale(0.05)"></path>
</svg>
